<?xml version="1.0" encoding="UTF-8" standalone="no"?>
<!-- Created with Inkscape (http://www.inkscape.org/) -->

<svg
   xmlns:dc="http://purl.org/dc/elements/1.1/"
   xmlns:cc="http://creativecommons.org/ns#"
   xmlns:rdf="http://www.w3.org/1999/02/22-rdf-syntax-ns#"
   xmlns:svg="http://www.w3.org/2000/svg"
   xmlns="http://www.w3.org/2000/svg"
   xmlns:sodipodi="http://sodipodi.sourceforge.net/DTD/sodipodi-0.dtd"
   xmlns:inkscape="http://www.inkscape.org/namespaces/inkscape"
   id="svg2"
   version="1.1"
   inkscape:version="0.48.5 r10040"
   width="1087.795"
   height="779.53375"
   xml:space="preserve"
   sodipodi:docname="GPF Logo.png"><metadata
     id="metadata8"><rdf:RDF><cc:Work
         rdf:about=""><dc:format>image/svg+xml</dc:format><dc:type
           rdf:resource="http://purl.org/dc/dcmitype/StillImage" /><dc:title></dc:title></cc:Work></rdf:RDF></metadata><defs
     id="defs6"><clipPath
       clipPathUnits="userSpaceOnUse"
       id="clipPath16"><path
         d="m 0,623.627 870.236,0 L 870.236,0 0,0 0,623.627 z"
         id="path18" /></clipPath><clipPath
       clipPathUnits="userSpaceOnUse"
       id="clipPath52"><path
         d="m 0,623.627 870.236,0 L 870.236,0 0,0 0,623.627 z"
         id="path54" /></clipPath></defs><sodipodi:namedview
     pagecolor="#ffffff"
     bordercolor="#666666"
     borderopacity="1"
     objecttolerance="10"
     gridtolerance="10"
     guidetolerance="10"
     inkscape:pageopacity="0"
     inkscape:pageshadow="2"
     inkscape:window-width="1309"
     inkscape:window-height="744"
     id="namedview4"
     showgrid="false"
     inkscape:zoom="0.60369828"
     inkscape:cx="554.12757"
     inkscape:cy="337.59157"
     inkscape:window-x="57"
     inkscape:window-y="24"
     inkscape:window-maximized="1"
     inkscape:current-layer="g10"
     inkscape:snap-bbox="true" /><g
     id="g10"
     inkscape:groupmode="layer"
     inkscape:label="GPF Logo"
     transform="matrix(1.25,0,0,-1.25,0,779.53375)"><g
       id="g12"
       transform="translate(-13.251653,-96.737065)"><g
         id="g14"
         clip-path="url(#clipPath16)"><g
           id="g20"
           transform="translate(453.74959,477.93453)"><path
             d="m 0,0 c 0,-68.544 -55.896,-124.108 -124.846,-124.108 -68.949,0 -124.843,55.564 -124.843,124.108 0,68.543 55.894,124.108 124.843,124.108 C -55.896,124.108 0,68.543 0,0"
             style="fill:#383332;fill-opacity:1;fill-rule:nonzero;stroke:none"
             id="path22"
             inkscape:connector-curvature="0" /></g><g
           id="g24"
           transform="translate(439.75449,477.19723)"><path
             d="m 0,0 c 0,-61.221 -49.63,-110.85 -110.851,-110.85 -61.22,0 -110.849,49.629 -110.849,110.85 0,61.221 49.629,110.851 110.849,110.851 C -49.63,110.851 0,61.221 0,0"
             style="fill:#ffffff;fill-opacity:1;fill-rule:nonzero;stroke:none"
             id="path26"
             inkscape:connector-curvature="0" /></g><g
           id="g28"
           transform="translate(559.13339,433.90223)"><path
             d="m 0,0 c 0,-47.322 -38.59,-85.685 -86.194,-85.685 -47.602,0 -86.192,38.363 -86.192,85.685 0,47.321 38.59,85.684 86.192,85.684 C -38.59,85.684 0,47.321 0,0"
             style="fill:#383332;fill-opacity:1;fill-rule:nonzero;stroke:none"
             id="path30"
             inkscape:connector-curvature="0" /></g><g
           id="g32"
           transform="translate(381.1763,300.876)"><path
             d="m 168.29599,132.51653 c 0,-42.267003 -34.267,-76.531003 -76.533,-76.531003 -42.266,0 -76.53,34.264 -76.53,76.531003 0,42.268 34.264,76.531 76.53,76.531 42.266,0 76.533,-34.263 76.533,-76.531"
             style="fill:#ffffff;fill-opacity:1;fill-rule:nonzero;stroke:none"
             id="path34"
             inkscape:connector-curvature="0" /></g><g
           id="g36"
           transform="translate(685.15679,384.13173)"><path
             d="m 0,0 c 0,-47.323 -38.588,-85.684 -86.192,-85.684 -47.602,0 -86.195,38.361 -86.195,85.684 0,47.323 38.593,85.684 86.195,85.684 C -38.588,85.684 0,47.323 0,0"
             style="fill:#383332;fill-opacity:1;fill-rule:nonzero;stroke:none"
             id="path38"
             inkscape:connector-curvature="0" /></g><g
           id="g40"
           transform="translate(675.49469,383.62393)"><path
             d="m 0,0 c 0,-42.267 -34.264,-76.533 -76.53,-76.533 -42.266,0 -76.53,34.266 -76.53,76.533 0,42.267 34.264,76.53 76.53,76.53 C -34.264,76.53 0,42.267 0,0"
             style="fill:#ffffff;fill-opacity:1;fill-rule:nonzero;stroke:none"
             id="path42"
             inkscape:connector-curvature="0" /></g></g></g><text
       transform="scale(1,-1)"
       id="text44"
       x="281.82639"
       y="-142.77223"><tspan
         style="font-size:81.90309906px;font-variant:normal;font-weight:normal;font-stretch:normal;writing-mode:lr-tb;fill:#383332;fill-opacity:1;fill-rule:nonzero;stroke:none;font-family:Myriad Pro;-inkscape-font-specification:MyriadPro-Regular"
         x="281.82639 322.69604 367.66086 386.98999 432.11859 468.23785 513.20264 554.23608"
         y="-142.77223"
         sodipodi:role="line"
         id="tspan46">Soluções</tspan></text>
<g
       id="g48"
       transform="translate(155.04434,35.779465)"><g
         id="g50"
         clip-path="url(#clipPath52)"><g
           id="g56"
           transform="translate(210.0698,271.5176)"><path
             d="m 0,0 c -9.57,-3.681 -28.709,-9.079 -51.04,-9.079 -25.028,0 -45.641,6.379 -61.835,21.839 -14.231,13.741 -23.066,35.825 -23.066,61.591 0,49.32 34.107,85.392 89.564,85.392 19.139,0 34.353,-4.172 41.468,-7.607 l -5.398,-17.422 c -8.834,4.172 -19.876,7.116 -36.56,7.116 -40.243,0 -66.5,-25.028 -66.5,-66.497 0,-41.962 25.029,-66.744 63.8,-66.744 13.986,0 23.556,1.963 28.464,4.416 l 0,49.32 -33.373,0 0,17.178 L 0,79.503 0,0 z"
             style="fill:#383332;fill-opacity:1;fill-rule:nonzero;stroke:none"
             id="path58"
             inkscape:connector-curvature="0" /></g><g
           id="g60"
           transform="translate(289.5112,301.3076)"
           style="fill:#1a1a1a"><path
             d="m 0,0 c 3.185,-0.84 7.205,-1.174 12.067,-1.174 17.594,0 28.319,8.713 28.319,23.963 0,15.082 -10.725,22.287 -26.646,22.287 C 7.374,45.076 2.514,44.573 0,43.903 L 0,0 z m -14.578,54.46 c 7.038,1.172 16.254,2.179 27.985,2.179 14.411,0 24.969,-3.352 31.67,-9.384 6.033,-5.363 9.886,-13.573 9.886,-23.628 0,-10.222 -3.016,-18.266 -8.711,-24.131 -7.876,-8.211 -20.277,-12.398 -34.523,-12.398 -4.355,0 -8.376,0.166 -11.729,1.004 l 0,-45.245 -14.578,0 0,111.603 z"
             style="fill:#1a1a1a;fill-opacity:1;fill-rule:nonzero;stroke:none"
             id="path62"
             inkscape:connector-curvature="0" /></g><g
           id="g64"
           transform="translate(401.1304,298.3896)"><path
             d="m 0,0 64.693,0 0,-10.891 -49.009,0 0,-33.422 45.265,0 0,-10.743 -45.265,0 0,-45.508 -15.684,0 L 0,0 z"
             style="fill:#383332;fill-opacity:1;fill-rule:nonzero;stroke:none"
             id="path66"
             inkscape:connector-curvature="0" /></g><path
           style="fill:#333333"
           d="m 345.08275,404.6476 0,-69.42985 12.6566,-1.18602 c 19.77907,-1.85345 39.87728,-0.14826 48.99784,4.15711 16.03194,7.56791 23.99394,21.7848 22.36457,39.93404 -2.2543,25.1102 -22.18164,39.63504 -54.37728,39.63504 l -13.07717,0 0,28.15976 0,28.15976 -8.28228,0 -8.28228,0 0,-69.42984 z m 50.59045,-3.25491 c 12.84375,-5.83411 18.8122,-17.20503 16.82138,-32.04764 -1.1296,-8.42183 -5.3346,-14.2582 -13.73273,-19.06049 -5.40034,-3.08806 -9.00342,-3.70428 -21.79231,-3.72702 l -15.32223,-0.0273 0,28.98799 0,28.98799 13.66577,-0.0364 c 9.65936,-0.0257 15.62836,-0.92786 20.36012,-3.0772 l 0,0 z"
           id="path3043"
           inkscape:connector-curvature="0"
           transform="matrix(0.8,0,0,-0.8,0,623.627)" /></g></g></g></svg>